<?xml version="1.0" encoding="UTF-8" standalone="no"?>
<!-- Created with Inkscape (http://www.inkscape.org/) -->

<svg
   xmlns:dc="http://purl.org/dc/elements/1.1/"
   xmlns:cc="http://creativecommons.org/ns#"
   xmlns:rdf="http://www.w3.org/1999/02/22-rdf-syntax-ns#"
   xmlns:svg="http://www.w3.org/2000/svg"
   xmlns="http://www.w3.org/2000/svg"
   xmlns:sodipodi="http://sodipodi.sourceforge.net/DTD/sodipodi-0.dtd"
   xmlns:inkscape="http://www.inkscape.org/namespaces/inkscape"
   width="210mm"
   height="297mm"
   viewBox="0 0 210 297"
   version="1.1"
   id="svg8"
   sodipodi:docname="icon.svg"
   inkscape:version="0.92.4 (5da689c313, 2019-01-14)">
  <defs
     id="defs2" />
  <sodipodi:namedview
     id="base"
     pagecolor="#ffffff"
     bordercolor="#666666"
     borderopacity="1.0"
     inkscape:pageopacity="0.0"
     inkscape:pageshadow="2"
     inkscape:zoom="0.7"
     inkscape:cx="297.91145"
     inkscape:cy="532.38124"
     inkscape:document-units="mm"
     inkscape:current-layer="g826"
     showgrid="false"
     inkscape:window-width="1920"
     inkscape:window-height="1057"
     inkscape:window-x="-8"
     inkscape:window-y="-8"
     inkscape:window-maximized="1" />
  <metadata
     id="metadata5">
    <rdf:RDF>
      <cc:Work
         rdf:about="">
        <dc:format>image/svg+xml</dc:format>
        <dc:type
           rdf:resource="http://purl.org/dc/dcmitype/StillImage" />
      </cc:Work>
    </rdf:RDF>
  </metadata>
  <g
     inkscape:label="Layer 1"
     inkscape:groupmode="layer"
     id="layer1">
    <g
       id="g826"
       transform="matrix(0.80585107,0,0,0.87919133,19.422543,3.6705652)">
      <path
         style="fill:#ceeafa;stroke-width:0.1277817"
         d="m 117.97299,302.98829 c -22.994055,-0.73151 -41.736015,-5.0481 -46.511962,-10.7125 -0.875433,-1.03829 -1.157635,-1.72848 -1.161069,-2.8396 -0.0034,-1.09192 0.353321,-1.92126 1.274501,-2.96337 2.491385,-2.81845 8.807561,-5.45931 17.554654,-7.33979 1.338048,-0.28765 2.430006,-0.55543 2.426571,-0.59506 -0.0034,-0.0395 -0.955298,-0.77539 -2.11525,-1.63502 -3.809609,-2.8233 -7.859052,-6.41552 -11.226322,-9.95879 -5.370186,-5.65088 -10.392308,-13.42885 -13.797377,-21.36862 -1.51187,-3.52529 -2.893084,-7.40903 -3.444393,-9.68505 l -0.206104,-0.85088 0.520346,-3.37737 0.520346,-3.37736 -0.854374,-2.57913 c -1.876122,-5.66355 -2.900519,-10.48714 -3.472365,-16.35037 -0.258552,-2.65097 -0.291567,-10.06353 -0.05659,-12.70764 0.444467,-5.00162 1.220568,-9.92792 2.258936,-14.33857 2.492836,-10.58877 5.74198,-20.49383 13.798309,-42.06434 3.778347,-10.11637 3.47947,-9.17432 4.028791,-12.69871 0.26291,-1.6868 0.592417,-3.43387 0.732244,-3.88239 0.402989,-1.29263 2.199475,-5.83224 7.072694,-17.87223 10.294711,-25.434613 14.747664,-36.954731 19.726664,-51.034437 5.51481,-15.594839 10.97692,-33.317284 14.51422,-47.0930223 0.27831,-1.0838865 0.54559,-2.0191655 0.59392,-2.0783967 0.14481,-0.1774142 0.28387,0.1335349 1.203,2.6899944 2.20185,6.1241646 5.89679,15.6852896 9.1653,23.7164006 5.37013,13.195058 8.70089,20.884294 23.6374,54.568112 14.22855,32.087279 16.99635,38.463859 21.59144,49.743279 16.45228,40.38474 21.23746,63.06041 18.28405,86.643 -1.53297,12.24055 -5.59534,23.76311 -11.52389,32.68651 -5.37965,8.09721 -12.76688,15.5107 -21.49048,21.56686 -0.96577,0.67046 -1.79904,1.26614 -1.85171,1.32374 -0.0528,0.0576 0.97449,0.3363 2.28263,0.61932 10.21774,2.21063 16.97082,5.40621 18.46263,8.73661 0.39688,0.88605 0.42786,2.11565 0.0754,2.99417 -0.31052,0.77402 -1.42699,2.08048 -2.39957,2.80796 -8.43979,6.31264 -33.03379,10.15225 -59.61259,9.30669 z M 91.133982,191.70066 c 0.03673,-0.0673 0.350784,-0.19703 0.697889,-0.28844 1.675058,-0.44104 3.497426,-2.05345 4.17663,-3.6954 0.509834,-1.23251 0.646533,-2.21831 0.490036,-3.53382 -0.402382,-3.38244 -2.241233,-6.90852 -4.196903,-8.04772 -0.220889,-0.12868 -0.372972,-0.26636 -0.337962,-0.30596 0.03501,-0.0395 0.494947,-0.15669 1.022081,-0.26018 2.902855,-0.56987 5.345388,-2.37311 6.890991,-5.08736 0.947776,-1.66441 1.406866,-3.12032 1.655776,-5.25098 0.22162,-1.89703 -0.26861,-4.57169 -1.20041,-6.54943 -1.109471,-2.35486 -3.484155,-4.65681 -5.498595,-5.33018 -0.310451,-0.10379 -0.784503,-0.45204 -1.20139,-0.8826 l -0.688597,-0.71118 0.748542,0.0177 c 1.04569,0.0247 1.127554,-0.0961 1.24643,-1.8386 0.202723,-2.97155 0.710295,-6.372 1.734486,-11.62005 0.294512,-1.50912 0.535477,-2.86502 0.535477,-3.0131 0,-0.2044 -0.151884,-0.32573 -0.630729,-0.50383 -0.346903,-0.12901 -0.698962,-0.26308 -0.782358,-0.29791 -0.413832,-0.17286 -2.674467,6.85665 -3.813822,11.85918 -0.306449,1.34553 -0.607739,2.66873 -0.669533,2.94049 -0.06501,0.28589 -0.202135,0.52064 -0.32543,0.55712 -0.128064,0.0379 -0.456357,0.6291 -0.822833,1.4818 -0.558283,1.29902 -0.646702,1.43163 -1.047461,1.57075 -0.527982,0.18331 -0.53502,0.1445 -0.177969,-0.9819 l 0.259787,-0.81956 -0.669642,-1.28717 c -1.058569,-2.03478 -2.336637,-5.38329 -2.799646,-7.33498 -0.115262,-0.48587 -0.251219,-0.93655 -0.302117,-1.00152 -0.0509,-0.0649 -0.198425,0.1185 -0.327837,0.40774 -0.679148,1.51774 -3.190804,9.68968 -4.213533,13.70916 -1.607575,6.31801 -2.337196,10.82 -2.493243,15.38407 l -0.0781,2.28431 1.727187,0.4426 1.727189,0.4426 0.198693,-0.29799 c 0.109277,-0.1639 0.375217,-0.79119 0.590968,-1.39398 0.215749,-0.60279 0.436717,-1.15298 0.491039,-1.22264 0.05716,-0.0733 0.378192,0.21297 0.762073,0.67955 0.787826,0.95754 0.793679,0.40462 -0.05961,5.63104 -0.695329,4.25893 -1.275417,8.1598 -1.389504,9.34385 l -0.08185,0.84944 h 1.205942 1.205942 l 0.611215,0.87986 c 1.350478,1.94405 3.273064,3.1059 5.260404,3.17895 0.276925,0.01 0.533556,-0.0365 0.570291,-0.10367 z m -16.218193,-16.6627 c 0.04463,-0.82227 0.213121,-3.41277 0.374405,-5.7567 0.161285,-2.34391 0.293244,-4.59902 0.293244,-5.01135 0,-0.64425 -0.02484,-0.72637 -0.176637,-0.58385 -0.09716,0.0912 -0.474852,0.84792 -0.839332,1.68155 -1.52375,3.4851 -1.617496,6.9083 -0.287357,10.49307 0.241203,0.65005 0.414656,0.96539 0.468709,0.85211 0.04719,-0.0988 0.122325,-0.85258 0.166968,-1.67483 z M 120.33255,13.638149 c 0.11551,-0.638659 0.18795,-1.280837 0.16096,-1.427062 -0.027,-0.146223 -0.14636,0.315156 -0.26523,1.02529 -0.11881,0.710132 -0.24413,1.413469 -0.27834,1.562971 -0.0408,0.178314 -0.0218,0.225067 0.0552,0.13591 0.0645,-0.07475 0.21189,-0.658449 0.32743,-1.297109 z"
         id="path840"
         inkscape:connector-curvature="0" />
      <path
         style="fill:#9dd6f6;stroke-width:0.1277817"
         d="m 120.81579,296.80012 c -8.80176,-0.43686 -14.83451,-1.38466 -20.00316,-3.14271 -2.126944,-0.72346 -4.041212,-2.01243 -4.509238,-3.0363 -0.286872,-0.62758 -0.227366,-1.83922 0.123606,-2.51671 0.567359,-1.09523 2.585196,-2.32743 5.106472,-3.11832 0.62772,-0.19691 1.22241,-0.38866 1.32153,-0.42615 0.23321,-0.0882 -0.18993,-0.33506 -2.4074,-1.40466 -7.054311,-3.40261 -13.310536,-7.78605 -18.97735,-13.29651 -1.580541,-1.5369 -3.63533,-3.74377 -3.96459,-4.25795 l -0.31872,-0.49776 0.836435,-5.36109 0.836436,-5.36111 -0.346694,-0.4511 c -0.190679,-0.24811 -0.837228,-1.03668 -1.436773,-1.75241 -3.284162,-3.92046 -5.399706,-6.70473 -7.571012,-9.96416 -10.125164,-15.19931 -13.833423,-31.4015 -11.455243,-50.0505 0.912291,-7.15391 3.157358,-16.24903 6.541977,-26.50256 3.839665,-11.63208 10.798135,-30.07264 21.591114,-57.21837 0.594409,-1.49501 1.637507,-4.12968 2.317994,-5.85485 1.374662,-3.48499 4.136507,-10.403044 5.611499,-14.05605 0.528194,-1.30814 1.177137,-2.928876 1.442092,-3.601628 0.264956,-0.672766 0.58393,-1.350288 0.708832,-1.505622 0.160722,-0.19988 0.659765,-0.393235 1.707475,-0.66157 l 1.48038,-0.379161 0.45456,-1.105258 c 3.026018,-7.357774 7.274928,-18.969307 10.375808,-28.355336 4.86681,-14.731265 8.11619,-27.050901 9.99272,-37.886124 0.2493,-1.439524 0.50868,-2.693299 0.57642,-2.786166 0.18464,-0.253187 -0.10385,-1.935687 -0.33195,-1.935687 -0.1022,0 -0.21291,0.197642 -0.26658,0.475688 -0.90457,4.686929 -1.79985,8.266532 -3.52961,14.112436 -1.62065,5.477209 -3.71931,11.820165 -3.85871,11.662479 -0.0261,-0.02958 0.22627,-1.811721 0.5609,-3.960324 0.57395,-3.68516 0.67308,-4.132733 1.74923,-7.897716 1.75945,-6.155503 2.92361,-10.367508 4.02495,-14.562451 0.5544,-2.1117114 1.0368,-3.839314 1.07201,-3.8391163 0.0353,1.965e-4 0.70855,1.7279609 1.49632,3.8394743 3.79466,10.171248 8.10162,20.945514 13.13407,32.85603 4.6544,11.015811 5.317,12.521902 24.24619,55.111747 11.57214,26.036835 16.95601,38.809615 21.85035,51.838245 8.43853,22.46319 12.24823,37.29102 13.48186,52.47315 0.25562,3.14573 0.29326,11.47569 0.0651,14.40652 -0.75497,9.69855 -2.49855,17.99685 -5.3401,25.41528 -3.25298,8.49261 -7.34436,15.0725 -13.86034,22.29067 -7.58743,8.40509 -15.66639,14.23252 -26.5816,19.17353 l -1.60691,0.7274 1.00622,0.28691 c 3.06009,0.87254 5.29232,2.1444 5.93248,3.38015 0.35097,0.67749 0.41048,1.88913 0.12363,2.51671 -1.28623,2.81382 -9.27399,5.07733 -21.1485,5.99288 -1.83301,0.14135 -10.50338,0.27302 -12.25417,0.18613 z M 93.686842,216.04897 c -0.04041,-1.17732 -0.265165,-3.7919 -0.499454,-5.81018 -0.529813,-4.56404 -0.867154,-7.89133 -0.974889,-9.61567 l -0.0828,-1.32512 h 0.587856 c 0.323322,0 1.269572,-0.0902 2.10278,-0.20048 4.264978,-0.5644 8.501635,-2.14233 12.060675,-4.49197 7.05987,-4.66084 12.1583,-12.05643 14.34507,-20.80838 0.59736,-2.39078 0.87267,-4.14052 1.1437,-7.26903 l 0.0661,-0.7629 -0.62985,-0.4745 -0.62986,-0.47451 -3.8284,-14.18845 c -2.10564,-7.80363 -3.84915,-14.21393 -3.87447,-14.24507 -0.0913,-0.1122 -0.1756,0.10083 -0.39623,1.00093 -0.12338,0.50336 -0.2741,0.9715 -0.33491,1.0403 -0.0673,0.0762 -0.413,-0.17473 -0.88412,-0.6418 -1.10689,-1.09741 -2.92884,-2.62226 -4.1757,-3.49478 -2.20823,-1.54527 -5.44095,-3.16886 -7.62059,-3.82732 -0.449679,-0.13584 -0.810936,-0.32018 -0.810936,-0.41379 0,-0.2649 0.533581,-2.52337 1.565036,-6.62428 0.917,-3.64586 1.37989,-5.78189 1.27797,-5.89718 -0.0438,-0.0495 -2.36245,5.18441 -2.36245,5.33293 0,0.0337 -0.648918,1.56383 -1.44204,3.40037 -1.420153,3.28849 -1.447049,3.33803 -1.77205,3.26373 -2.173346,-0.49683 -7.012853,-0.58079 -9.460578,-0.16412 -2.005676,0.34143 -5.097934,1.2423 -5.295771,1.54283 -0.08629,0.13106 -0.353935,0.77344 -0.59478,1.42751 -0.240844,0.65407 -0.490845,1.18922 -0.555558,1.18922 -0.06471,0 -0.08934,-0.10701 -0.05471,-0.23784 0.214149,-0.80927 0.455875,-2.09298 0.404958,-2.15058 -0.167559,-0.18956 -0.680535,0.32123 -1.075415,1.07083 -1.191394,2.26162 -5.738025,13.08647 -9.237041,21.992 -3.893903,9.9106 -6.69175,18.09405 -7.622372,22.29477 l -0.311401,1.40563 0.908017,2.05132 c 0.49941,1.12821 0.908016,2.22326 0.908016,2.43345 0,0.21017 -0.185978,1.70289 -0.413283,3.31715 -0.767223,5.4486 -1.148524,9.5861 -1.148524,12.46264 v 1.53738 l 0.810938,0.7384 c 2.847422,2.59277 7.455763,5.27378 11.142895,6.48265 1.668283,0.54698 5.773575,1.44082 5.92042,1.28907 0.01849,-0.0191 -0.40066,-1.11815 -0.93143,-2.44234 -0.530771,-1.3242 -1.21275,-3.18072 -1.515509,-4.12559 -0.627116,-1.95717 -1.371048,-5.11047 -1.371048,-5.81149 v -0.47155 l 0.810938,0.45461 c 0.446017,0.25004 1.182285,0.63004 1.636154,0.84444 l 0.825214,0.3898 -0.08608,2.14887 -0.08609,2.14888 1.292502,2.75063 c 2.467283,5.25076 4.242952,8.55455 6.135958,11.41653 0.605097,0.91481 1.308471,1.84679 1.563053,2.07105 0.498405,0.43903 1.020168,0.52456 3.574397,0.58591 l 1.069158,0.0257 z"
         id="path838"
         inkscape:connector-curvature="0" />
      <path
         style="fill:#6cc6f4;stroke-width:0.1277817"
         d="m 122.67794,291.98416 c -1.89264,-0.11603 -3.9908,-0.44127 -5.33771,-0.8275 -1.55499,-0.44589 -2.11091,-0.88403 -2.11091,-1.66365 0,-0.55476 0.33831,-1.07394 0.85869,-1.31779 l 0.38626,-0.18099 -0.35217,-0.11109 c -0.19369,-0.061 -1.29825,-0.32836 -2.45459,-0.59393 -5.81725,-1.33604 -11.34576,-3.37088 -15.678144,-5.77056 -0.92507,-0.5124 -1.750853,-0.9853 -1.835072,-1.05089 -0.12093,-0.0942 0.01116,-1.17465 0.628266,-5.13788 0.429764,-2.76025 0.809909,-5.15327 0.844763,-5.31786 0.05403,-0.25514 -0.06518,-0.38308 -0.808475,-0.86775 -7.678363,-5.00674 -11.708214,-8.47209 -18.498263,-15.90704 -2.94799,-3.22799 -6.712133,-8.08482 -9.203293,-11.87493 -11.123689,-16.92377 -14.218891,-35.54679 -9.509852,-57.21835 1.797114,-8.27053 4.858808,-18.20779 9.033801,-29.32073 1.055451,-2.80939 0.858546,-2.54179 2.106601,-2.86302 0.348691,-0.0898 0.341201,0.0152 -0.07887,1.1054 -0.627282,1.62789 -3.212502,8.60069 -4.038994,10.89387 -5.838957,16.20086 -8.323506,29.20776 -7.86907,41.19551 0.06402,1.68894 0.152078,3.17597 0.195671,3.30449 0.06549,0.19307 3.057295,2.83265 3.600241,3.17641 0.0906,0.0573 0.352254,1.03225 0.59233,2.20693 0.833047,4.07611 1.581131,6.76961 2.700457,9.72302 1.638824,4.32413 4.306565,8.97279 6.772095,11.80065 l 1.099587,1.2612 1.26146,0.22775 c 3.391469,0.61236 8.020315,0.97347 10.752442,0.83882 8.606107,-0.42412 15.791179,-2.32399 23.169709,-6.12651 1.77395,-0.9142 4.85126,-2.75408 5.95603,-3.56101 l 0.66873,-0.48847 -0.42048,-0.10058 c -0.23127,-0.0554 -1.66392,-0.29064 -3.18369,-0.52294 -6.00168,-0.91738 -11.22425,-2.49573 -14.950451,-4.5183 -1.408418,-0.76448 -1.408931,-0.83839 -0.0068,-0.98487 3.902221,-0.40768 9.291921,-1.95854 13.575711,-3.90639 10.35806,-4.7098 19.42987,-13.69707 25.01194,-24.77887 2.89359,-5.7445 4.9965,-12.45192 5.96548,-19.02748 0.5715,-3.87828 0.67921,-5.38702 0.67921,-9.51374 0,-4.1176 -0.10842,-5.64301 -0.67285,-9.46593 -1.06202,-7.19333 -3.56534,-14.76779 -6.8406,-20.69816 l -0.89628,-1.62286 -0.0385,0.52522 c -0.0212,0.28889 0.0207,1.69192 0.0931,3.11788 0.3105,6.11591 0.26615,13.99394 -0.0827,14.68304 -0.0547,0.108 -2.55223,-8.92757 -6.15399,-22.26359 -3.33409,-12.34494 -6.66453,-24.67281 -7.40094,-27.39529 l -1.33891,-4.949952 -0.20134,1.008543 c -0.1107,0.554698 -0.63673,3.607829 -1.16886,6.784749 -1.03419,6.1743 -1.63202,9.37701 -1.78402,9.55749 -0.0517,0.0614 -0.74128,-0.25531 -1.5323,-0.70389 -6.51093,-3.69229 -14.03421,-5.85486 -21.208735,-6.09645 -1.413436,-0.0476 -2.372747,-0.1335 -2.372747,-0.21246 0,-0.2929 1.037564,-3.02669 4.473414,-11.786615 6.955588,-17.733713 10.830838,-28.208096 14.531928,-39.278164 5.17263,-15.471501 8.55273,-28.021752 10.56033,-39.210209 0.55081,-3.069826 0.72231,-3.773818 0.87518,-3.592571 0.0273,0.03239 0.52036,1.52673 1.09566,3.32075 1.68664,5.259689 4.0094,11.745085 6.64435,18.551796 2.17277,5.612724 3.83631,9.649654 3.97645,9.649654 0.0473,0 0.18657,-0.688048 0.30949,-1.528995 0.12287,-0.840947 0.25908,-1.681893 0.30256,-1.86877 0.0643,-0.276545 1.44357,2.758618 7.41128,16.309275 4.03273,9.156976 9.96632,22.520384 13.18578,29.696468 16.94163,37.762491 24.44002,55.698471 30.28478,72.440351 6.01642,17.23358 8.99176,29.7934 10.10964,42.67593 0.30321,3.49418 0.30458,12.98505 0.003,16.37721 -1.47115,16.51317 -6.15635,29.81523 -14.27186,40.52017 -4.80937,6.3439 -10.01602,11.53942 -16.08641,16.05198 -8.39323,6.23929 -17.0853,10.21736 -27.24818,12.47056 -1.36742,0.30318 -2.56626,0.58356 -2.66409,0.62308 -0.11615,0.047 -0.008,0.15832 0.31447,0.32123 0.78698,0.3986 1.10262,1.19484 0.76042,1.91819 -0.4118,0.87046 -3.48513,1.63674 -7.60152,1.89524 -2.25111,0.14138 -2.49108,0.1411 -4.88892,-0.006 z m 20.44299,-96.91079 c 2.49665,-2.33385 5.44585,-6.30436 7.07355,-9.52312 l 0.7762,-1.53493 0.0337,1.66716 c 0.0265,1.3061 0.0715,1.68355 0.20814,1.74285 0.3134,0.13605 2.93871,-2.12508 4.1732,-3.59427 0.37993,-0.4522 0.6908,-0.86394 0.6908,-0.915 0,-0.11096 -4.35439,-9.40774 -4.77209,-10.1886 -0.15994,-0.299 -0.26363,-0.4213 -0.23039,-0.27182 0.0332,0.14951 0.0976,1.5991 0.14314,3.22132 l 0.0827,2.94949 -1.24932,1.4676 c -3.01011,3.53604 -5.27318,7.13076 -7.13411,11.33196 -0.86575,1.95452 -1.7809,4.40777 -1.91861,5.14329 l -0.0871,0.4652 0.50972,-0.42407 c 0.28035,-0.23324 1.04551,-0.92492 1.70035,-1.53706 z m 24.48901,-68.40207 c 0,-0.35035 -2.81577,-6.82297 -6.21573,-14.28814 -3.35692,-7.37065 -2.79621,-5.89533 1.88538,4.96074 2.95216,6.84569 4.09497,9.37784 4.23241,9.37784 0.0539,0 0.0979,-0.0227 0.0979,-0.0504 z"
         id="path836"
         inkscape:connector-curvature="0" />
      <path
         style="fill:#4fb8ef;stroke-width:0.1277817"
         d="m 122.738,290.29556 c -1.5383,-0.27456 -2.17984,-0.69808 -1.71198,-1.13015 0.214,-0.19764 1.38745,-0.57256 1.8239,-0.58276 0.74943,-0.0176 -0.0888,-0.22168 -1.29213,-0.31475 -2.98456,-0.2308 -8.99606,-1.38006 -10.54062,-2.01511 l -0.42777,-0.17588 0.75143,-4.75687 c 0.41329,-2.61628 0.75445,-4.91894 0.75815,-5.11702 0.006,-0.34819 -0.0642,-0.38589 -2.12575,-1.13405 -10.254206,-3.72131 -18.709107,-8.99035 -26.36037,-16.42763 -2.016093,-1.9597 -6.223335,-6.57543 -8.321281,-9.12922 -3.930594,-4.78462 -7.669394,-10.35125 -10.147121,-15.10784 -1.045764,-2.0076 -3.027663,-6.59791 -3.773399,-8.73963 -1.631777,-4.68639 -2.708967,-9.43174 -3.347399,-14.7463 -0.251149,-2.09066 -0.277713,-2.82986 -0.279211,-7.76958 -9.61e-4,-3.00251 0.02549,-5.48979 0.05866,-5.5273 0.03317,-0.0374 0.195361,-0.10664 0.360417,-0.15353 l 0.300102,-0.0853 -0.03997,4.2535 c -0.02199,2.33943 0.02058,5.17091 0.09457,6.29217 0.490244,7.42843 2.190382,14.81159 4.960483,21.54183 0.936024,2.27416 1.130328,2.54783 2.173279,3.06089 l 0.913207,0.44921 -0.146268,-0.36196 c -0.08044,-0.19909 -0.666657,-1.52401 -1.302687,-2.94427 -1.899825,-4.24233 -3.180563,-8.15692 -3.957476,-12.09605 -0.358737,-1.81887 -0.434723,-2.65026 -0.242228,-2.65026 0.113868,0 0.204144,0.25927 0.851831,2.44639 1.445709,4.88192 3.712677,9.9787 6.326581,14.22392 1.554309,2.52435 1.817389,2.82555 2.775275,3.17739 0.762202,0.27995 0.908838,0.4084 2.550709,2.2343 2.847179,3.16633 5.471787,5.60163 8.191179,7.60034 1.946516,1.43065 2.046294,1.44969 6.105365,1.16497 12.080948,-0.8474 23.077132,-4.92399 32.825192,-12.16922 2.78998,-2.07364 7.42139,-6.10198 7.42139,-6.455 0,-0.067 -0.14868,-0.15872 -0.33039,-0.20376 -0.76704,-0.19014 -0.80841,-0.28958 -0.27017,-0.64927 0.69888,-0.46704 3.8048,-3.02922 5.18444,-4.27685 1.62689,-1.47121 1.5136,-1.24938 3.11084,-6.09155 1.31137,-3.97555 1.24897,-3.85367 2.17543,-4.24874 1.1906,-0.50772 3.75443,-1.91799 5.20729,-2.86436 6.28799,-4.09586 11.71727,-10.09113 15.45062,-17.06132 3.32365,-6.20523 5.36086,-13.11123 6.05396,-20.5225 0.19463,-2.08103 0.24328,-5.91211 0.0751,-5.91211 -0.20943,0 -0.34979,0.35383 -0.43129,1.0873 -0.19791,1.78085 -0.99961,4.83098 -1.20786,4.5954 -0.0839,-0.0949 -24.59588,-52.27871 -24.79001,-52.77572 -0.0876,-0.22425 -0.71761,-2.15078 -1.4,-4.28118 -0.6824,-2.1304 -1.352,-4.16636 -1.488,-4.52437 -0.29353,-0.77274 -0.48866,-0.98702 -2.83474,-3.11282 -0.99114,-0.89808 -1.86874,-1.73607 -1.95022,-1.8622 -0.31447,-0.48678 -0.81531,-3.50174 -3.15109,-18.968606 l -0.96386,-6.382508 -1.95319,-7.249976 c -1.07424,-3.987474 -1.96636,-7.170166 -1.98249,-7.072623 -0.0161,0.09749 -0.32487,2.845481 -0.6861,6.106537 -0.99787,9.008426 -2.61906,20.796966 -3.37456,24.538285 l -0.19685,0.974895 -0.9802,-0.47915 c -5.53061,-2.703516 -11.84385,-4.644447 -17.919809,-5.509221 -1.123301,-0.159869 -2.058041,-0.302699 -2.077202,-0.317378 -0.05629,-0.04313 0.593063,-1.838866 2.676005,-7.400306 6.739076,-17.993275 10.443256,-28.745656 13.835516,-40.161409 3.08601,-10.385122 5.00449,-18.195674 6.4597,-26.298874 0.34231,-1.906146 0.67386,-3.456054 0.73676,-3.44424 0.0629,0.01186 0.60609,1.540809 1.20706,3.397765 3.6677,11.33292 9.11902,25.55734 16.86344,44.002672 3.23171,7.697123 4.88802,11.452639 4.99675,11.329629 0.0202,-0.02274 0.18426,-1.01923 0.36472,-2.214357 0.18047,-1.195126 0.36543,-2.221857 0.41102,-2.281638 0.0456,-0.05981 0.52029,0.827024 1.05489,1.970698 4.02506,8.610841 21.01272,46.765525 24.88845,55.899995 15.66316,36.91575 22.26269,58.6015 23.60675,77.57073 1.32518,18.70268 -2.20257,36.27005 -9.99595,49.77751 -5.38209,9.32825 -14.17434,18.5348 -23.75701,24.87643 -9.491,6.28099 -20.75505,10.24863 -31.65663,11.15072 -1.17915,0.0976 -1.98383,0.30325 -1.25323,0.32032 0.43645,0.01 1.60989,0.38513 1.8239,0.58276 0.26964,0.24901 0.1587,0.52293 -0.30036,0.74166 -1.14506,0.54556 -4.46012,0.74501 -6.45747,0.3885 z m 60.27977,-125.45918 c 0.1817,-0.049 0.33038,-0.1101 0.33038,-0.13562 0,-0.14471 -0.91453,-2.85077 -1.53602,-4.54502 -4.54303,-12.38495 -13.01814,-32.22163 -22.70416,-53.14105 -2.0763,-4.48429 -2.66371,-5.70825 -2.73954,-5.70825 -0.13022,0 0.31157,1.06903 4.63377,11.21263 10.11966,23.74943 15.10812,35.9188 18.85865,46.00574 2.45199,6.59455 2.42741,6.53412 2.63158,6.46588 0.10727,-0.036 0.34362,-0.10528 0.52534,-0.15431 z"
         id="path834"
         inkscape:connector-curvature="0" />
      <path
         style="fill:#17a1e7;stroke-width:0.1277817"
         d="m 124.23938,289.93956 c -1.98339,-0.23393 -2.02797,-0.71451 -0.09,-0.97106 1.33529,-0.17676 3.25426,0.0177 3.55732,0.36058 0.15843,0.17923 0.14271,0.21795 -0.13756,0.33848 -0.28799,0.12388 -0.85618,0.21888 -2.00779,0.33566 -0.23127,0.0235 -0.82612,-0.005 -1.3219,-0.0638 z m 4.68578,-2.24851 c 0,-0.12783 1.32775,-8.63506 1.40267,-8.98729 0.0623,-0.29276 0.0325,-0.3058 -0.69883,-0.30595 -0.42015,-7e-5 -1.84515,-0.0916 -3.16668,-0.20332 -15.61644,-1.32055 -29.452291,-7.42302 -41.276032,-18.20529 -1.765421,-1.60993 -5.151363,-5.25114 -4.427362,-4.76117 0.387874,0.2625 1.392816,1.02267 1.674968,1.267 0.297934,0.258 0.8672,0.34411 4.262404,0.64477 0.839902,0.0744 0.840576,0.0741 0.528801,-0.17255 -0.171696,-0.13587 -0.402802,-0.3512 -0.513572,-0.47854 -0.110773,-0.12732 -0.429822,-0.43611 -0.709007,-0.68617 -0.279187,-0.25008 -0.913081,-0.818 -1.408654,-1.26205 -0.495574,-0.44406 -1.545211,-1.41964 -2.332526,-2.16795 -0.787314,-0.74831 -1.770051,-1.66943 -2.183856,-2.04694 -1.03181,-0.94132 -6.517401,-7.3442 -7.954059,-9.28413 -5.368574,-7.24926 -9.188253,-15.42072 -10.713698,-22.91986 -0.555652,-2.73159 -0.411424,-2.7548 0.422583,-0.068 2.245629,7.23455 5.648102,13.81948 10.112497,19.57114 6.688097,8.61652 15.174479,14.60712 24.923813,17.59385 1.14117,0.3496 1.194742,0.35338 3.003475,0.21162 6.219185,-0.48741 11.459815,-2.49629 16.498535,-6.32435 3.43984,-2.61334 6.70715,-6.16579 9.52869,-10.36022 1.11038,-1.65069 4.4053,-7.39921 5.61078,-9.78895 0.57609,-1.14202 1.13568,-2.12901 1.24357,-2.19333 0.1079,-0.0642 0.52053,-0.19149 0.91698,-0.28262 0.39646,-0.0911 1.66693,-0.47123 2.82327,-0.84467 16.23528,-5.24339 29.41464,-18.73684 35.68144,-36.53182 0.76645,-2.1764 1.66339,-5.37561 2.22249,-7.92731 l 0.53172,-2.42669 -0.17628,-1.51639 c -0.73815,-6.34963 -2.82188,-16.09001 -4.96188,-23.19415 -0.25895,-0.85962 -0.77463,-2.57003 -1.14594,-3.80085 -0.72192,-2.39301 -0.76081,-2.58695 -0.51882,-2.58695 0.23998,0 2.67433,4.82299 5.72803,11.34855 1.48016,3.16297 1.92471,4.0069 1.92471,3.65377 0,-0.22227 -0.85049,-3.3529 -1.84278,-6.78322 -0.76016,-2.62782 -0.95557,-3.4992 -1.21921,-5.43641 -0.89659,-6.58812 -2.27884,-12.62968 -4.28515,-18.72976 -0.46305,-1.40794 -0.824,-2.57794 -0.80209,-2.60002 0.0738,-0.0744 5.70849,13.47356 8.02465,19.2946 4.72948,11.88615 6.98097,18.47736 9.9119,29.01691 1.9526,7.0215 3.43394,14.08081 4.04595,19.28093 0.12008,1.02029 0.18036,1.23308 0.33489,1.18221 0.1036,-0.0341 0.39549,-0.10367 0.64856,-0.15442 0.25306,-0.0508 0.4901,-0.18074 0.52675,-0.28878 0.0366,-0.108 0.003,-0.94126 -0.0754,-1.85161 -0.53232,-6.20143 -1.92233,-13.62204 -3.69599,-19.7313 -3.87558,-13.34921 -11.38074,-31.96865 -25.8576,-64.14979 -2.30581,-5.12569 -3.73064,-8.44095 -3.73241,-8.68455 -0.001,-0.21668 0.16807,-1.48523 0.37699,-2.81899 0.3138,-2.003265 0.40489,-2.383835 0.52384,-2.188305 0.56139,0.922776 8.30831,18.304985 11.76577,26.399475 10.48681,24.55147 17.05067,42.90819 20.53262,57.42224 1.89211,7.88707 3.04608,15.56898 3.45036,22.96889 0.1781,3.25987 0.0793,10.48616 -0.18504,13.52311 -1.00795,11.58303 -3.84664,22.1474 -8.29004,30.85169 -6.10114,11.95172 -17.27308,23.46645 -29.43882,30.34215 -8.17862,4.6223 -17.21902,7.49834 -25.52954,8.12176 -2.09319,0.15702 -2.04238,0.15577 -2.04238,0.05 z m -25.4094,-35.16859 c 0.26431,-0.10478 1.30584,-0.47266 2.31452,-0.81749 2.57802,-0.88134 5.28379,-1.98792 7.57478,-3.09788 1.07901,-0.52278 1.98957,-0.91912 2.02345,-0.88078 0.0815,0.0921 -1.35247,0.99953 -3.1426,1.98859 -1.75528,0.9698 -3.33419,1.64063 -5.28545,2.24562 -1.43943,0.44629 -1.76029,0.51297 -3.24442,0.67417 l -0.72083,0.0783 z m 59.88931,-133.27581 c -0.13485,-0.29901 -0.21813,-0.54365 -0.18509,-0.54365 0.0331,0 0.17038,0.24464 0.30522,0.54365 0.13484,0.299 0.21813,0.54364 0.18509,0.54364 -0.0331,0 -0.17038,-0.24464 -0.30522,-0.54364 z m -1.15087,-2.27651 c -3.77832,-7.3038 -9.46725,-15.32871 -14.78176,-20.851412 -4.14366,-4.305989 -9.16367,-8.610693 -13.34585,-11.4442 -0.93522,-0.633632 -1.0922,-0.919291 -3.27483,-5.959197 -1.64232,-3.792327 -3.31794,-7.978729 -4.81849,-12.038687 -0.42265,-1.143562 -0.78423,-2.025734 -0.80349,-1.96038 -0.0193,0.06537 0.37389,2.224205 0.87365,4.797422 1.81951,9.368458 2.18672,11.406166 2.05547,11.406166 -0.21276,0 -0.92208,-0.490247 -0.96952,-0.670084 -0.30241,-1.146367 -2.0391,-12.898579 -2.24079,-15.163499 -0.0732,-0.822255 -0.23466,-2.045455 -0.35875,-2.718208 -0.19104,-1.035789 -1.10949,-8.177633 -1.37644,-10.702962 -0.0962,-0.910323 -0.29412,-1.045948 -0.2975,-0.203866 -0.008,2.024773 -0.45242,9.142805 -0.8463,13.557087 -0.40335,4.520178 -1.16404,11.104382 -1.3831,11.971355 -0.0459,0.181395 -0.34091,0.09972 -1.88328,-0.521039 -3.8548,-1.551514 -7.87374,-2.785637 -11.8635,-3.643034 -2.91377,-0.626157 -2.76319,-0.583279 -2.76319,-0.786952 0,-0.09774 0.49189,-1.610307 1.09308,-3.361207 4.25043,-12.378702 5.52076,-16.201351 7.49398,-22.550701 3.49485,-11.245631 6.39511,-22.938463 7.75348,-31.259439 0.28368,-1.737694 0.35802,-2.084817 0.42928,-2.004204 0.0268,0.03022 0.55868,1.64027 1.18216,3.577895 4.88776,15.190204 14.4402,39.11434 30.81906,77.186504 0.73963,1.719266 1.42727,3.401167 1.52808,3.737537 0.28592,0.954149 0.80153,2.252675 2.29355,5.776205 4.97236,11.74268 6.48732,15.42585 6.34496,15.42585 -0.0186,0 -0.40559,-0.71862 -0.85996,-1.59695 z"
         id="path832"
         inkscape:connector-curvature="0" />
      <path
         style="fill:#0377c8;stroke-width:0.1277817"
         d="m 124.23938,289.93956 c -1.98339,-0.23393 -2.02797,-0.71451 -0.09,-0.97106 1.33529,-0.17676 3.25426,0.0177 3.55732,0.36058 0.15843,0.17923 0.14271,0.21795 -0.13756,0.33848 -0.28799,0.12388 -0.85618,0.21888 -2.00779,0.33566 -0.23127,0.0235 -0.82612,-0.005 -1.3219,-0.0638 z m 26.50523,-7.89803 c 0.10309,-0.18862 1.25179,-7.48924 1.1895,-7.5597 -0.0245,-0.0277 -1.21875,0.2977 -2.65387,0.72318 -7.64791,2.26748 -14.38547,3.1472 -21.40507,2.79482 -11.70208,-0.58741 -22.56222,-4.07112 -32.468792,-10.41535 -1.613866,-1.03353 -5.334113,-3.75876 -5.469548,-4.00667 -0.138604,-0.25371 0.253924,-0.11812 1.024405,0.35365 1.487373,0.91089 5.112896,2.88727 6.667714,3.63478 7.456631,3.58488 14.990871,5.66689 23.006631,6.35761 5.65964,0.4877 13.12739,-0.55191 20.02234,-2.78736 4.31402,-1.39867 5.41305,-2.00166 10.19262,-5.59241 15.29431,-11.49011 27.16894,-26.42833 35.96829,-45.24791 0.73397,-1.56976 1.33457,-2.77722 1.33469,-2.68322 0,0.4607 -0.79021,4.13335 -1.26908,5.89442 -0.94033,3.45802 -2.0125,6.45841 -3.56347,9.97214 -0.90023,2.03946 -1.24293,2.75087 -2.39362,4.96889 -0.43578,0.84002 -0.57644,1.35037 -0.37244,1.3514 0.0496,0 1.30652,-0.31398 2.79324,-0.69828 2.14412,-0.55426 2.7452,-0.75813 2.9066,-0.98582 0.63847,-0.9007 2.61939,-7.18212 3.45383,-10.95194 1.35722,-6.13157 2.00096,-11.77856 2.13086,-18.6918 0.21381,-11.37886 -1.39231,-22.8676 -4.76605,-34.09228 -2.39881,-7.98097 -5.34826,-15.88817 -12.42777,-33.31773 -0.69796,-1.71835 -1.26901,-3.27434 -1.26901,-3.45772 0,-0.49586 0.50232,-3.73023 0.59858,-3.85415 0.14034,-0.18069 2.24146,4.81049 5.13705,12.203 4.22087,10.77594 7.6808,20.83493 10.02131,29.13471 5.0583,17.93752 6.4767,32.97311 4.534,48.06252 -1.62305,12.60675 -6.00291,24.58784 -12.21115,33.40341 -3.02063,4.28924 -7.52108,9.41008 -11.26347,12.81619 -3.93093,3.5777 -7.63438,6.35322 -11.89377,8.91361 -3.19682,1.92166 -7.80316,4.2131 -7.55455,3.75801 z m -33.25487,-12.76055 c -11.28643,-1.05579 -22.375977,-6.06569 -32.475388,-14.67133 -5.370855,-4.57647 -11.123697,-10.94424 -14.853469,-16.44123 -4.012691,-5.91393 -7.080212,-12.85677 -8.585529,-19.43198 -0.480614,-2.09931 -0.520889,-3.1088 -0.06249,-1.5662 4.037604,13.58702 12.176302,25.07663 22.960857,32.41441 3.595461,2.44636 8.967822,5.02328 12.784639,6.13233 0.910909,0.26469 1.087023,0.27265 2.83344,0.12825 4.51949,-0.37374 8.60784,-1.55355 12.35338,-3.56494 1.14765,-0.6163 1.0898,-0.60981 3.54704,-0.39785 6.7636,0.58345 13.77441,0.079 20.56178,-1.47981 0.92506,-0.21244 1.84413,-0.42229 2.04236,-0.46636 0.49905,-0.11096 -1.26559,0.83963 -2.99171,1.61154 -4.47704,2.00213 -10.83204,4.18088 -14.24825,4.88487 -3.7375,0.77021 -6.52554,1.05058 -11.47327,1.15374 l -4.08473,0.0853 1.44167,0.57653 c 3.16891,1.26729 6.86436,2.24038 10.27189,2.70482 2.1888,0.29834 7.90364,0.33828 9.97154,0.0697 7.06537,-0.91766 13.4705,-3.3438 19.34238,-7.32657 8.54109,-5.7932 15.18589,-14.54075 19.07355,-25.10938 0.45438,-1.23522 1.15412,-2.75146 1.99458,-4.32199 4.54001,-8.48362 6.8852,-16.22408 7.83397,-25.85665 0.25818,-2.6213 0.35544,-8.94425 0.1828,-11.88569 -0.60702,-10.34255 -2.56193,-20.67511 -6.4028,-33.84174 -0.66507,-2.2799 -1.23825,-4.23175 -1.27371,-4.33746 -0.11628,-0.34646 0.2134,-0.0123 0.50241,0.50942 0.15183,0.27401 0.89937,1.75201 1.66121,3.28439 8.86203,17.82545 13.4009,32.74911 14.28147,46.95713 0.17628,2.84413 0.0804,8.51869 -0.18705,11.07671 -1.03552,9.90254 -3.70042,18.1152 -8.75409,26.97825 -2.14256,3.75759 -4.03849,6.44739 -6.74042,9.56276 -6.53093,7.53033 -14.05062,12.84885 -25.29553,17.89108 -6.34439,2.84482 -10.5578,4.0128 -16.67976,4.62377 -2.14094,0.21367 -7.50253,0.24421 -9.53277,0.0542 z M 134.5717,52.757488 c -1.24776,-0.660263 -5.55098,-2.591512 -7.452,-3.344382 -3.87515,-1.534699 -8.03253,-2.901436 -11.59004,-3.810221 -1.46521,-0.374299 -2.05239,-0.579664 -2.07785,-0.726734 -0.0195,-0.112754 0.26068,-1.268879 0.62265,-2.569173 3.23145,-11.608083 5.27779,-20.324441 6.44202,-27.439675 0.28627,-1.749564 0.3586,-2.084833 0.43188,-2.001936 0.0278,0.03146 0.52996,1.549777 1.11588,3.374029 2.54031,7.909192 4.98405,14.647036 10.35754,28.557681 2.5886,6.701266 3.11104,8.092465 3.11104,8.284536 0,0.165157 -0.10056,0.131239 -0.96112,-0.324125 z"
         id="path830"
         inkscape:connector-curvature="0" />
      <path
         style="fill:#0e5baa;stroke-width:0.1277817"
         d="m 124.23938,289.93956 c -1.98339,-0.23393 -2.02797,-0.71451 -0.09,-0.97106 1.33529,-0.17676 3.25426,0.0177 3.55732,0.36058 0.15843,0.17923 0.14271,0.21795 -0.13756,0.33848 -0.28799,0.12388 -0.85618,0.21888 -2.00779,0.33566 -0.23127,0.0235 -0.82612,-0.005 -1.3219,-0.0638 z m -6.24686,-20.86937 c -0.29735,-0.0297 -1.2975,-0.14687 -2.22258,-0.2606 -14.17287,-1.74244 -27.976327,-9.81398 -39.653174,-23.18704 -3.887246,-4.45192 -5.846941,-7.1174 -8.143177,-11.07601 -3.00683,-5.1836 -5.321928,-10.97593 -6.443613,-16.12177 -0.387497,-1.77767 -0.240636,-1.8623 0.290236,-0.16725 4.099299,13.08888 11.936626,24.00627 22.739156,31.67558 0.814256,0.57809 1.787163,1.44093 2.617486,2.32136 8.841009,9.37454 21.073386,15.11342 33.358106,15.6501 8.94872,0.39095 17.44958,-1.62424 25.38988,-6.01883 15.53645,-8.59873 26.38533,-25.44857 28.87791,-44.85141 0.42039,-3.2724 0.53036,-5.16641 0.55241,-9.51374 0.0157,-3.10386 0.0737,-4.61639 0.22008,-5.74434 0.71414,-5.50232 0.76606,-12.92929 0.13512,-19.33116 -0.88661,-8.99605 -2.79342,-18.31451 -6.01446,-29.39221 -0.63551,-2.18562 -1.18479,-4.06033 -1.22065,-4.16601 -0.0404,-0.11949 -0.0137,-0.15622 0.0708,-0.0971 0.0748,0.0523 0.7256,1.27023 1.44625,2.70653 14.69349,29.28469 18.23696,52.8428 11.064,73.55681 -2.71487,7.83991 -7.07369,15.29664 -12.5335,21.44118 -5.84289,6.57573 -12.6397,11.75771 -20.68876,15.77345 -8.06463,4.02352 -12.91361,5.63449 -19.74983,6.5615 -1.54323,0.20926 -8.69447,0.38004 -10.09167,0.24101 z m 7.38855,-236.490434 c -2.21164,-0.755518 -7.19442,-2.218645 -7.55575,-2.218645 -0.11044,0 -0.22855,-0.08191 -0.2625,-0.182015 -0.034,-0.100113 0.32287,-2.011353 0.79295,-4.247207 0.97755,-4.649505 1.78718,-8.797549 2.15966,-11.064586 0.32968,-2.006656 0.36302,-2.138031 0.47972,-1.89091 0.0498,0.105612 0.61759,1.843341 1.26159,3.861614 0.644,2.018272 1.9,5.779597 2.79112,8.358501 1.89966,5.497635 2.67591,7.822849 2.67591,8.015481 0,0.179322 0.15699,0.221688 -2.3427,-0.632233 z"
         id="path828"
         inkscape:connector-curvature="0" />
    </g>
  </g>
</svg>
